<svg width="43" height="43" viewBox="0 0 43 43" fill="none" xmlns="http://www.w3.org/2000/svg">
<g clip-path="url(#clip0_23_138)">
<path d="M21.4998 14.9565C21.4045 14.9565 21.3129 14.964 21.1521 14.9827C20.6361 15.0126 20.365 15.4408 20.3931 15.9568C20.4211 16.4728 20.9802 16.8617 21.4998 16.8262C24.0761 16.8262 26.1737 18.9238 26.1663 21.5637C26.1644 21.5823 26.1495 21.7263 26.1495 21.7469C26.1214 22.2499 26.5046 22.6237 27.0076 22.6667C27.0319 22.6686 27.0543 22.6686 27.0787 22.6686C27.5536 22.6686 27.9667 22.2591 28.0228 21.7806C28.0284 21.7451 28.0433 21.5376 28.0433 21.5001C28.0433 17.8917 25.1082 14.9565 21.4998 14.9565Z" fill="#6C6C6C"/>
<path d="M21.5 0C9.64511 0 0 9.64511 0 21.5C0 33.3548 9.64511 42.9999 21.5 42.9999C33.3548 42.9999 42.9999 33.3548 42.9999 21.5C42.9999 9.64511 33.3549 0 21.5 0ZM21.5 41.1304C10.6752 41.1304 1.86953 32.3247 1.86953 21.5C1.86953 16.4241 3.82136 11.8063 6.99588 8.31953L11.5763 12.9C10.191 14.1339 9.34785 15.8932 9.34785 17.7609V25.2391C9.34785 28.8473 12.283 31.7826 15.8914 31.7826H27.1087C28.0528 31.7826 28.9727 31.5396 29.8252 31.1488L34.6805 36.0041C31.1937 39.1786 26.5758 41.1304 21.5 41.1304ZM21.5 28.0435C22.9208 28.0435 24.2725 27.563 25.398 26.7216L28.393 29.7167C27.9762 29.8363 27.5461 29.913 27.1087 29.913H15.8913C13.315 29.913 11.2174 27.8153 11.2174 25.2391V17.7609C11.2174 16.3681 11.8362 15.1042 12.8888 14.2124L16.2783 17.6019C15.437 18.7274 14.9565 20.081 14.9565 21.5C14.9565 25.1083 17.8917 28.0435 21.5 28.0435ZM16.8261 21.5C16.8261 20.5783 17.1084 19.6921 17.6095 18.933L24.0688 25.3924C23.3098 25.8934 22.4236 26.1738 21.5 26.1738C18.9237 26.1739 16.8261 24.0763 16.8261 21.5ZM36.0022 34.6823L8.31769 6.99781C11.8063 3.82329 16.4223 1.86962 21.5 1.86962C32.3247 1.86962 41.1304 10.6753 41.1304 21.5C41.1304 26.5778 39.1767 31.1937 36.0022 34.6823Z" fill="#6C6C6C"/>
<path d="M27.1068 11.2174H26.0131C25.6261 10.1293 24.5866 9.34785 23.3676 9.34785H19.6284C18.3571 9.34785 17.2802 10.2004 16.9381 11.3632C16.6783 11.5277 16.5044 11.8194 16.5044 12.1522C16.5044 12.6682 16.9232 13.087 17.4392 13.087H17.7607C18.2767 13.087 18.6956 12.6682 18.6956 12.1522C18.6956 11.6362 19.1144 11.2174 19.6304 11.2174H23.3695C23.8855 11.2174 24.3043 11.6362 24.3043 12.1522C24.3043 12.6682 24.7231 13.087 25.2391 13.087H27.1087C29.6849 13.087 31.7826 15.1847 31.7826 17.7609V25.2391C31.7826 25.7477 31.6891 26.2693 31.5059 26.7909C31.3358 27.2788 31.5919 27.8117 32.078 27.9837C32.1808 28.0192 32.2855 28.036 32.3883 28.036C32.7735 28.036 33.1343 27.7948 33.267 27.4116C33.5213 26.6881 33.6503 25.959 33.6503 25.2392V17.761C33.6503 14.1526 30.715 11.2174 27.1068 11.2174Z" fill="#6C6C6C"/>
</g>
<defs>
<clipPath id="clip0_23_138">
<rect width="43" height="43" fill="white"/>
</clipPath>
</defs>
</svg>
