<svg width="25" height="25" viewBox="0 0 25 25" fill="none" xmlns="http://www.w3.org/2000/svg">
<g clip-path="url(#clip0_11_56)">
<path fill-rule="evenodd" clip-rule="evenodd" d="M25 12.5C25 19.4035 19.4035 25 12.5 25C5.59644 25 0 19.4035 0 12.5C0 5.59644 5.59644 0 12.5 0C19.4035 0 25 5.59644 25 12.5ZM12.9479 9.22805C11.7322 9.73375 9.30224 10.7804 5.65824 12.368C5.06651 12.6033 4.75654 12.8335 4.72832 13.0586C4.68062 13.4391 5.15701 13.5889 5.80572 13.7928C5.89396 13.8206 5.9854 13.8494 6.07912 13.8798C6.71735 14.0873 7.57587 14.33 8.0222 14.3396C8.42704 14.3483 8.87891 14.1815 9.37777 13.8389C12.7825 11.5406 14.54 10.379 14.6503 10.3539C14.7282 10.3363 14.836 10.314 14.9092 10.379C14.9822 10.444 14.9751 10.567 14.9673 10.6C14.9201 10.8011 13.0501 12.5397 12.0824 13.4394C11.7807 13.7198 11.5668 13.9187 11.523 13.9642C11.425 14.066 11.3251 14.1623 11.2292 14.2548C10.6362 14.8264 10.1916 15.255 11.2537 15.955C11.7643 16.2914 12.1727 16.5695 12.5802 16.847C13.0252 17.1501 13.4691 17.4524 14.0433 17.8289C14.1897 17.9248 14.3294 18.0244 14.4655 18.1214C14.9834 18.4906 15.4487 18.8223 16.0235 18.7694C16.3576 18.7386 16.7026 18.4246 16.8778 17.4879C17.2919 15.2742 18.1058 10.4776 18.294 8.50102C18.3105 8.32784 18.2898 8.10622 18.2731 8.00894C18.2565 7.91165 18.2217 7.77303 18.0952 7.67042C17.9454 7.5489 17.7143 7.52327 17.6108 7.52508C17.1406 7.53337 16.4194 7.78419 12.9479 9.22805Z" fill="white" fill-opacity="0.25"/>
</g>
<defs>
<clipPath id="clip0_11_56">
<rect width="25" height="25" fill="white"/>
</clipPath>
</defs>
</svg>
