<svg width="25" height="25" viewBox="0 0 25 25" fill="none" xmlns="http://www.w3.org/2000/svg">
<g clip-path="url(#clip0_11_52)">
<path d="M10.835 14.9072L14.9268 12.5049L10.835 10.1025V14.9072Z" fill="white" fill-opacity="0.25"/>
<path d="M12.5 0C5.5957 0 0 5.5957 0 12.5C0 19.4043 5.5957 25 12.5 25C19.4043 25 25 19.4043 25 12.5C25 5.5957 19.4043 0 12.5 0ZM18.75 14.7363C18.75 16.8896 16.5967 16.8896 16.5967 16.8896H8.40332C6.25 16.8896 6.25 14.7363 6.25 14.7363V10.2686C6.25 8.11523 8.40332 8.11524 8.40332 8.11524H16.5967C18.75 8.11524 18.75 10.2686 18.75 10.2686V14.7363Z" fill="white" fill-opacity="0.25"/>
</g>
<defs>
<clipPath id="clip0_11_52">
<rect width="25" height="25" fill="white"/>
</clipPath>
</defs>
</svg>
